<svg width="900" height="840" viewBox="0 0 900 840" fill="none" xmlns="http://www.w3.org/2000/svg">
<rect width="900" height="840" rx="250" fill="black"/>
<rect x="62.5" y="132.5" width="575" height="575" stroke="black" stroke-width="25"/>
<path d="M190.001 320C190.001 320 340 412.06 340 445C340 477.942 190 570 190 570" stroke="white" stroke-width="65" stroke-linecap="round" stroke-linejoin="round"/>
<path d="M487.183 406V302.891H501.149V406H487.183ZM496.691 406V393.223H551.96V406H496.691ZM639.73 406L590.404 353.109C586.541 348.949 583.669 344.987 581.787 341.223C579.905 337.459 578.964 333.299 578.964 328.743C578.964 323.493 580.202 318.838 582.678 314.777C585.155 310.617 588.572 307.349 592.93 304.971C597.288 302.495 602.29 301.257 607.935 301.257C612.095 301.257 615.859 301.95 619.227 303.337C622.694 304.625 625.715 306.358 628.29 308.537C630.964 310.716 633.193 313.192 634.975 315.966L625.318 324.731C623.04 321.562 620.515 319.036 617.741 317.154C615.067 315.173 611.798 314.183 607.935 314.183C603.478 314.183 599.764 315.52 596.793 318.194C593.821 320.869 592.335 324.335 592.335 328.594C592.335 332.16 593.078 335.181 594.564 337.657C596.05 340.133 598.278 343.006 601.25 346.274L656.073 406H639.73ZM602.735 407.486C595.901 407.486 589.909 406.149 584.758 403.474C579.608 400.8 575.596 397.135 572.724 392.48C569.951 387.726 568.564 382.328 568.564 376.286C568.564 370.046 570.248 364.4 573.615 359.349C576.983 354.297 581.886 350.286 588.324 347.314L594.713 355.634C590.751 357.615 587.631 360.339 585.353 363.806C583.075 367.173 581.935 371.234 581.935 375.989C581.935 379.851 582.827 383.17 584.61 385.943C586.393 388.716 588.869 390.895 592.038 392.48C595.307 393.966 599.021 394.709 603.181 394.709C608.431 394.709 612.888 393.619 616.553 391.44C620.217 389.261 622.991 386.488 624.873 383.12L633.638 393.371C631.657 396.046 629.033 398.472 625.764 400.651C622.595 402.731 619.029 404.415 615.067 405.703C611.204 406.891 607.094 407.486 602.735 407.486ZM697.793 407.486C689.671 407.486 682.738 406 676.993 403.029C671.249 400.057 666.148 395.749 661.69 390.103L671.199 380.594C674.468 385.15 678.231 388.617 682.49 390.994C686.75 393.272 691.999 394.411 698.239 394.411C704.38 394.411 709.283 393.074 712.948 390.4C716.711 387.726 718.593 384.061 718.593 379.406C718.593 375.543 717.702 372.423 715.919 370.046C714.136 367.669 711.71 365.737 708.639 364.251C705.668 362.667 702.399 361.28 698.833 360.091C695.268 358.804 691.702 357.467 688.136 356.08C684.57 354.594 681.302 352.811 678.33 350.731C675.359 348.552 672.932 345.73 671.05 342.263C669.268 338.796 668.376 334.438 668.376 329.189C668.376 323.345 669.763 318.392 672.536 314.331C675.409 310.171 679.271 307.002 684.125 304.823C689.077 302.545 694.624 301.406 700.765 301.406C707.5 301.406 713.542 302.743 718.89 305.417C724.239 307.992 728.597 311.41 731.965 315.669L722.456 325.177C719.386 321.611 716.068 318.937 712.502 317.154C709.035 315.371 705.024 314.48 700.468 314.48C694.921 314.48 690.513 315.718 687.245 318.194C683.976 320.571 682.342 323.939 682.342 328.297C682.342 331.764 683.233 334.587 685.016 336.766C686.898 338.846 689.325 340.629 692.296 342.114C695.268 343.6 698.536 344.987 702.102 346.274C705.767 347.463 709.382 348.8 712.948 350.286C716.513 351.771 719.782 353.653 722.753 355.931C725.725 358.21 728.102 361.181 729.885 364.846C731.767 368.411 732.708 372.918 732.708 378.366C732.708 387.478 729.538 394.61 723.199 399.76C716.959 404.91 708.49 407.486 697.793 407.486Z" fill="white"/>
<path d="M498.637 574.682L728.618 572.139" stroke="white" stroke-width="32" stroke-linecap="round" stroke-linejoin="round"/>
<rect x="481" y="470" width="146" height="63" rx="20" fill="#FA49A1"/>
<g filter="url(#filter0_d_797_131)">
<path d="M518.16 516.4C516.347 516.4 514.76 516.067 513.4 515.4C512.067 514.707 511.027 513.72 510.28 512.44C509.56 511.133 509.2 509.613 509.2 507.88V494.92C509.2 493.16 509.56 491.64 510.28 490.36C511.027 489.08 512.067 488.107 513.4 487.44C514.76 486.747 516.347 486.4 518.16 486.4C519.973 486.4 521.547 486.747 522.88 487.44C524.213 488.133 525.24 489.12 525.96 490.4C526.707 491.653 527.08 493.16 527.08 494.92H522.76C522.76 493.4 522.36 492.24 521.56 491.44C520.76 490.64 519.627 490.24 518.16 490.24C516.693 490.24 515.547 490.64 514.72 491.44C513.92 492.24 513.52 493.387 513.52 494.88V507.88C513.52 509.373 513.92 510.533 514.72 511.36C515.547 512.16 516.693 512.56 518.16 512.56C519.627 512.56 520.76 512.16 521.56 511.36C522.36 510.533 522.76 509.373 522.76 507.88H527.08C527.08 509.613 526.707 511.12 525.96 512.4C525.24 513.68 524.213 514.667 522.88 515.36C521.547 516.053 519.973 516.4 518.16 516.4ZM541.984 516.36C540.171 516.36 538.598 516.013 537.264 515.32C535.931 514.627 534.904 513.64 534.184 512.36C533.464 511.08 533.104 509.573 533.104 507.84V502.16C533.104 500.4 533.464 498.893 534.184 497.64C534.904 496.36 535.931 495.373 537.264 494.68C538.598 493.987 540.171 493.64 541.984 493.64C543.798 493.64 545.371 493.987 546.704 494.68C548.038 495.373 549.064 496.36 549.784 497.64C550.504 498.893 550.864 500.4 550.864 502.16V507.84C550.864 509.573 550.504 511.08 549.784 512.36C549.064 513.64 548.038 514.627 546.704 515.32C545.371 516.013 543.798 516.36 541.984 516.36ZM541.984 512.56C543.451 512.56 544.584 512.16 545.384 511.36C546.184 510.533 546.584 509.36 546.584 507.84V502.16C546.584 500.613 546.184 499.44 545.384 498.64C544.584 497.84 543.451 497.44 541.984 497.44C540.544 497.44 539.411 497.84 538.584 498.64C537.784 499.44 537.384 500.613 537.384 502.16V507.84C537.384 509.36 537.784 510.533 538.584 511.36C539.411 512.16 540.544 512.56 541.984 512.56ZM564.409 516.4C562.195 516.4 560.422 515.653 559.089 514.16C557.755 512.667 557.089 510.653 557.089 508.12V501.92C557.089 499.36 557.755 497.333 559.089 495.84C560.422 494.347 562.195 493.6 564.409 493.6C566.222 493.6 567.662 494.107 568.729 495.12C569.795 496.107 570.329 497.467 570.329 499.2L569.409 498.2H570.409L570.289 493.08V486.8H574.609V516H570.329V511.8H569.409L570.329 510.8C570.329 512.533 569.795 513.907 568.729 514.92C567.662 515.907 566.222 516.4 564.409 516.4ZM565.889 512.64C567.249 512.64 568.315 512.227 569.089 511.4C569.889 510.547 570.289 509.373 570.289 507.88V502.12C570.289 500.627 569.889 499.467 569.089 498.64C568.315 497.787 567.249 497.36 565.889 497.36C564.475 497.36 563.369 497.773 562.569 498.6C561.769 499.4 561.369 500.573 561.369 502.12V507.88C561.369 509.427 561.769 510.613 562.569 511.44C563.369 512.24 564.475 512.64 565.889 512.64ZM589.953 516.4C588.166 516.4 586.593 516.053 585.233 515.36C583.9 514.64 582.873 513.64 582.153 512.36C581.433 511.08 581.073 509.587 581.073 507.88V502.12C581.073 500.387 581.433 498.893 582.153 497.64C582.873 496.36 583.9 495.373 585.233 494.68C586.593 493.96 588.166 493.6 589.953 493.6C591.766 493.6 593.34 493.96 594.673 494.68C596.006 495.373 597.033 496.36 597.753 497.64C598.473 498.893 598.833 500.387 598.833 502.12V506.04H585.233V507.88C585.233 509.507 585.633 510.747 586.433 511.6C587.26 512.453 588.446 512.88 589.993 512.88C591.246 512.88 592.26 512.667 593.033 512.24C593.806 511.787 594.286 511.133 594.473 510.28H598.753C598.433 512.147 597.473 513.64 595.873 514.76C594.273 515.853 592.3 516.4 589.953 516.4ZM594.673 503.44V502.08C594.673 500.48 594.273 499.24 593.473 498.36C592.673 497.48 591.5 497.04 589.953 497.04C588.433 497.04 587.26 497.48 586.433 498.36C585.633 499.24 585.233 500.493 585.233 502.12V503.12L594.993 503.08L594.673 503.44Z" fill="white"/>
</g>
<path d="M660.4 516C658.507 516 657.027 515.493 655.96 514.48C654.92 513.467 654.4 512.04 654.4 510.2V497.28H648.2V494H654.4V487.8H658V494H666.8V497.28H658V510.2C658 511.88 658.8 512.72 660.4 512.72H666.4V516H660.4ZM681.984 516.4C680.251 516.4 678.731 516.053 677.424 515.36C676.144 514.667 675.144 513.693 674.424 512.44C673.731 511.16 673.384 509.68 673.384 508V502C673.384 500.293 673.731 498.813 674.424 497.56C675.144 496.307 676.144 495.333 677.424 494.64C678.731 493.947 680.251 493.6 681.984 493.6C683.718 493.6 685.224 493.947 686.504 494.64C687.811 495.333 688.811 496.307 689.504 497.56C690.224 498.813 690.584 500.293 690.584 502V505.88H676.904V508C676.904 509.733 677.344 511.067 678.224 512C679.104 512.907 680.358 513.36 681.984 513.36C683.371 513.36 684.491 513.12 685.344 512.64C686.198 512.133 686.718 511.387 686.904 510.4H690.504C690.264 512.24 689.358 513.707 687.784 514.8C686.238 515.867 684.304 516.4 681.984 516.4ZM687.064 503.48V502C687.064 500.267 686.624 498.933 685.744 498C684.891 497.067 683.638 496.6 681.984 496.6C680.358 496.6 679.104 497.067 678.224 498C677.344 498.933 676.904 500.267 676.904 502V503.16H687.344L687.064 503.48ZM706.129 516.4C704.369 516.4 702.822 516.067 701.489 515.4C700.182 514.733 699.169 513.773 698.449 512.52C697.729 511.24 697.369 509.733 697.369 508V502C697.369 500.24 697.729 498.733 698.449 497.48C699.169 496.227 700.182 495.267 701.489 494.6C702.822 493.933 704.369 493.6 706.129 493.6C708.662 493.6 710.702 494.28 712.249 495.64C713.795 497 714.609 498.853 714.689 501.2H711.089C711.009 499.787 710.529 498.707 709.649 497.96C708.795 497.187 707.622 496.8 706.129 496.8C704.555 496.8 703.302 497.253 702.369 498.16C701.435 499.04 700.969 500.307 700.969 501.96V508C700.969 509.653 701.435 510.933 702.369 511.84C703.302 512.747 704.555 513.2 706.129 513.2C707.622 513.2 708.795 512.813 709.649 512.04C710.529 511.267 711.009 510.187 711.089 508.8H714.689C714.609 511.147 713.795 513 712.249 514.36C710.702 515.72 708.662 516.4 706.129 516.4ZM721.633 516V486.8H725.233V494V498.2H725.993L725.233 499.04C725.233 497.307 725.753 495.973 726.793 495.04C727.833 494.08 729.273 493.6 731.113 493.6C733.326 493.6 735.086 494.28 736.393 495.64C737.7 497 738.353 498.853 738.353 501.2V516H734.753V501.6C734.753 500.027 734.326 498.813 733.473 497.96C732.646 497.08 731.513 496.64 730.073 496.64C728.58 496.64 727.393 497.107 726.513 498.04C725.66 498.973 725.233 500.293 725.233 502V516H721.633Z" fill="white" fill-opacity="0.7"/>
<defs>
<filter id="filter0_d_797_131" x="489.2" y="486.4" width="129.633" height="70" filterUnits="userSpaceOnUse" color-interpolation-filters="sRGB">
<feFlood flood-opacity="0" result="BackgroundImageFix"/>
<feColorMatrix in="SourceAlpha" type="matrix" values="0 0 0 0 0 0 0 0 0 0 0 0 0 0 0 0 0 0 127 0" result="hardAlpha"/>
<feOffset dy="20"/>
<feGaussianBlur stdDeviation="10"/>
<feComposite in2="hardAlpha" operator="out"/>
<feColorMatrix type="matrix" values="0 0 0 0 0 0 0 0 0 0 0 0 0 0 0 0 0 0 0.25 0"/>
<feBlend mode="normal" in2="BackgroundImageFix" result="effect1_dropShadow_797_131"/>
<feBlend mode="normal" in="SourceGraphic" in2="effect1_dropShadow_797_131" result="shape"/>
</filter>
</defs>
</svg>