<svg width="1641" height="840" viewBox="0 0 1641 840" fill="none" xmlns="http://www.w3.org/2000/svg">
<rect width="900" height="840" rx="250" fill="black"/>
<rect x="62.5" y="132.5" width="575" height="575" stroke="black" stroke-width="25"/>
<path d="M190.001 320C190.001 320 340 412.06 340 445C340 477.942 190 570 190 570" stroke="white" stroke-width="65" stroke-linecap="round" stroke-linejoin="round"/>
<path d="M429.056 488V343.648H448.608V488H429.056ZM442.368 488V470.112H519.744V488H442.368ZM642.622 488L573.566 413.952C568.158 408.128 564.136 402.581 561.502 397.312C558.867 392.043 557.55 386.219 557.55 379.84C557.55 372.491 559.283 365.973 562.75 360.288C566.216 354.464 571 349.888 577.102 346.56C583.203 343.093 590.206 341.36 598.11 341.36C603.934 341.36 609.203 342.331 613.918 344.272C618.771 346.075 623 348.501 626.606 351.552C630.35 354.603 633.47 358.069 635.966 361.952L622.446 374.224C619.256 369.787 615.72 366.251 611.838 363.616C608.094 360.843 603.518 359.456 598.11 359.456C591.87 359.456 586.67 361.328 582.51 365.072C578.35 368.816 576.27 373.669 576.27 379.632C576.27 384.624 577.31 388.853 579.39 392.32C581.47 395.787 584.59 399.808 588.75 404.384L665.502 488H642.622ZM590.83 490.08C581.262 490.08 572.872 488.208 565.662 484.464C558.451 480.72 552.835 475.589 548.814 469.072C544.931 462.416 542.99 454.859 542.99 446.4C542.99 437.664 545.347 429.76 550.062 422.688C554.776 415.616 561.64 410 570.654 405.84L579.598 417.488C574.051 420.261 569.683 424.075 566.494 428.928C563.304 433.643 561.71 439.328 561.71 445.984C561.71 451.392 562.958 456.037 565.454 459.92C567.95 463.803 571.416 466.853 575.854 469.072C580.43 471.152 585.63 472.192 591.454 472.192C598.803 472.192 605.043 470.667 610.174 467.616C615.304 464.565 619.187 460.683 621.822 455.968L634.094 470.32C631.32 474.064 627.646 477.461 623.07 480.512C618.632 483.424 613.64 485.781 608.094 487.584C602.686 489.248 596.931 490.08 590.83 490.08ZM723.911 490.08C712.54 490.08 702.833 488 694.791 483.84C686.748 479.68 679.607 473.648 673.367 465.744L686.679 452.432C691.255 458.811 696.524 463.664 702.487 466.992C708.449 470.181 715.799 471.776 724.535 471.776C733.132 471.776 739.996 469.904 745.127 466.16C750.396 462.416 753.031 457.285 753.031 450.768C753.031 445.36 751.783 440.992 749.287 437.664C746.791 434.336 743.393 431.632 739.095 429.552C734.935 427.333 730.359 425.392 725.367 423.728C720.375 421.925 715.383 420.053 710.391 418.112C705.399 416.032 700.823 413.536 696.663 410.624C692.503 407.573 689.105 403.621 686.471 398.768C683.975 393.915 682.727 387.813 682.727 380.464C682.727 372.283 684.668 365.349 688.551 359.664C692.572 353.84 697.98 349.403 704.775 346.352C711.708 343.163 719.473 341.568 728.071 341.568C737.5 341.568 745.959 343.44 753.447 347.184C760.935 350.789 767.036 355.573 771.751 361.536L758.439 374.848C754.14 369.856 749.495 366.112 744.503 363.616C739.649 361.12 734.033 359.872 727.655 359.872C719.889 359.872 713.719 361.605 709.143 365.072C704.567 368.4 702.279 373.115 702.279 379.216C702.279 384.069 703.527 388.021 706.023 391.072C708.657 393.984 712.055 396.48 716.215 398.56C720.375 400.64 724.951 402.581 729.943 404.384C735.073 406.048 740.135 407.92 745.127 410C750.119 412.08 754.695 414.715 758.855 417.904C763.015 421.093 766.343 425.253 768.839 430.384C771.473 435.376 772.791 441.685 772.791 449.312C772.791 462.069 768.353 472.053 759.479 479.264C750.743 486.475 738.887 490.08 723.911 490.08Z" fill="white"/>
<path d="M498.637 574.682L728.618 572.139" stroke="white" stroke-width="32" stroke-linecap="round" stroke-linejoin="round"/>
<rect x="984" y="159.5" width="657" height="283" rx="90" fill="#FA49A1"/>
<g filter="url(#filter0_d_802_128)">
<path d="M1151.22 367.8C1143.06 367.8 1135.92 366.3 1129.8 363.3C1123.8 360.18 1119.12 355.74 1115.76 349.98C1112.52 344.1 1110.9 337.26 1110.9 329.46V271.14C1110.9 263.22 1112.52 256.38 1115.76 250.62C1119.12 244.86 1123.8 240.48 1129.8 237.48C1135.92 234.36 1143.06 232.8 1151.22 232.8C1159.38 232.8 1166.46 234.36 1172.46 237.48C1178.46 240.6 1183.08 245.04 1186.32 250.8C1189.68 256.44 1191.36 263.22 1191.36 271.14H1171.92C1171.92 264.3 1170.12 259.08 1166.52 255.48C1162.92 251.88 1157.82 250.08 1151.22 250.08C1144.62 250.08 1139.46 251.88 1135.74 255.48C1132.14 259.08 1130.34 264.24 1130.34 270.96V329.46C1130.34 336.18 1132.14 341.4 1135.74 345.12C1139.46 348.72 1144.62 350.52 1151.22 350.52C1157.82 350.52 1162.92 348.72 1166.52 345.12C1170.12 341.4 1171.92 336.18 1171.92 329.46H1191.36C1191.36 337.26 1189.68 344.04 1186.32 349.8C1183.08 355.56 1178.46 360 1172.46 363.12C1166.46 366.24 1159.38 367.8 1151.22 367.8ZM1258.43 367.62C1250.27 367.62 1243.19 366.06 1237.19 362.94C1231.19 359.82 1226.57 355.38 1223.33 349.62C1220.09 343.86 1218.47 337.08 1218.47 329.28V303.72C1218.47 295.8 1220.09 289.02 1223.33 283.38C1226.57 277.62 1231.19 273.18 1237.19 270.06C1243.19 266.94 1250.27 265.38 1258.43 265.38C1266.59 265.38 1273.67 266.94 1279.67 270.06C1285.67 273.18 1290.29 277.62 1293.53 283.38C1296.77 289.02 1298.39 295.8 1298.39 303.72V329.28C1298.39 337.08 1296.77 343.86 1293.53 349.62C1290.29 355.38 1285.67 359.82 1279.67 362.94C1273.67 366.06 1266.59 367.62 1258.43 367.62ZM1258.43 350.52C1265.03 350.52 1270.13 348.72 1273.73 345.12C1277.33 341.4 1279.13 336.12 1279.13 329.28V303.72C1279.13 296.76 1277.33 291.48 1273.73 287.88C1270.13 284.28 1265.03 282.48 1258.43 282.48C1251.95 282.48 1246.85 284.28 1243.13 287.88C1239.53 291.48 1237.73 296.76 1237.73 303.72V329.28C1237.73 336.12 1239.53 341.4 1243.13 345.12C1246.85 348.72 1251.95 350.52 1258.43 350.52ZM1359.34 367.8C1349.38 367.8 1341.4 364.44 1335.4 357.72C1329.4 351 1326.4 341.94 1326.4 330.54V302.64C1326.4 291.12 1329.4 282 1335.4 275.28C1341.4 268.56 1349.38 265.2 1359.34 265.2C1367.5 265.2 1373.98 267.48 1378.78 272.04C1383.58 276.48 1385.98 282.6 1385.98 290.4L1381.84 285.9H1386.34L1385.8 262.86V234.6H1405.24V366H1385.98V347.1H1381.84L1385.98 342.6C1385.98 350.4 1383.58 356.58 1378.78 361.14C1373.98 365.58 1367.5 367.8 1359.34 367.8ZM1366 350.88C1372.12 350.88 1376.92 349.02 1380.4 345.3C1384 341.46 1385.8 336.18 1385.8 329.46V303.54C1385.8 296.82 1384 291.6 1380.4 287.88C1376.92 284.04 1372.12 282.12 1366 282.12C1359.64 282.12 1354.66 283.98 1351.06 287.7C1347.46 291.3 1345.66 296.58 1345.66 303.54V329.46C1345.66 336.42 1347.46 341.76 1351.06 345.48C1354.66 349.08 1359.64 350.88 1366 350.88ZM1474.29 367.8C1466.25 367.8 1459.17 366.24 1453.05 363.12C1447.05 359.88 1442.43 355.38 1439.19 349.62C1435.95 343.86 1434.33 337.14 1434.33 329.46V303.54C1434.33 295.74 1435.95 289.02 1439.19 283.38C1442.43 277.62 1447.05 273.18 1453.05 270.06C1459.17 266.82 1466.25 265.2 1474.29 265.2C1482.45 265.2 1489.53 266.82 1495.53 270.06C1501.53 273.18 1506.15 277.62 1509.39 283.38C1512.63 289.02 1514.25 295.74 1514.25 303.54V321.18H1453.05V329.46C1453.05 336.78 1454.85 342.36 1458.45 346.2C1462.17 350.04 1467.51 351.96 1474.47 351.96C1480.11 351.96 1484.67 351 1488.15 349.08C1491.63 347.04 1493.79 344.1 1494.63 340.26H1513.89C1512.45 348.66 1508.13 355.38 1500.93 360.42C1493.73 365.34 1484.85 367.8 1474.29 367.8ZM1495.53 309.48V303.36C1495.53 296.16 1493.73 290.58 1490.13 286.62C1486.53 282.66 1481.25 280.68 1474.29 280.68C1467.45 280.68 1462.17 282.66 1458.45 286.62C1454.85 290.58 1453.05 296.22 1453.05 303.54V308.04L1496.97 307.86L1495.53 309.48Z" fill="white"/>
</g>
<path d="M1161.44 626.5C1152.92 626.5 1146.26 624.22 1141.46 619.66C1136.78 615.1 1134.44 608.68 1134.44 600.4V542.26H1106.54V527.5H1134.44V499.6H1150.64V527.5H1190.24V542.26H1150.64V600.4C1150.64 607.96 1154.24 611.74 1161.44 611.74H1188.44V626.5H1161.44ZM1258.57 628.3C1250.77 628.3 1243.93 626.74 1238.05 623.62C1232.29 620.5 1227.79 616.12 1224.55 610.48C1221.43 604.72 1219.87 598.06 1219.87 590.5V563.5C1219.87 555.82 1221.43 549.16 1224.55 543.52C1227.79 537.88 1232.29 533.5 1238.05 530.38C1243.93 527.26 1250.77 525.7 1258.57 525.7C1266.37 525.7 1273.15 527.26 1278.91 530.38C1284.79 533.5 1289.29 537.88 1292.41 543.52C1295.65 549.16 1297.27 555.82 1297.27 563.5V580.96H1235.71V590.5C1235.71 598.3 1237.69 604.3 1241.65 608.5C1245.61 612.58 1251.25 614.62 1258.57 614.62C1264.81 614.62 1269.85 613.54 1273.69 611.38C1277.53 609.1 1279.87 605.74 1280.71 601.3H1296.91C1295.83 609.58 1291.75 616.18 1284.67 621.1C1277.71 625.9 1269.01 628.3 1258.57 628.3ZM1281.43 570.16V563.5C1281.43 555.7 1279.45 549.7 1275.49 545.5C1271.65 541.3 1266.01 539.2 1258.57 539.2C1251.25 539.2 1245.61 541.3 1241.65 545.5C1237.69 549.7 1235.71 555.7 1235.71 563.5V568.72H1282.69L1281.43 570.16ZM1367.22 628.3C1359.3 628.3 1352.34 626.8 1346.34 623.8C1340.46 620.8 1335.9 616.48 1332.66 610.84C1329.42 605.08 1327.8 598.3 1327.8 590.5V563.5C1327.8 555.58 1329.42 548.8 1332.66 543.16C1335.9 537.52 1340.46 533.2 1346.34 530.2C1352.34 527.2 1359.3 525.7 1367.22 525.7C1378.62 525.7 1387.8 528.76 1394.76 534.88C1401.72 541 1405.38 549.34 1405.74 559.9H1389.54C1389.18 553.54 1387.02 548.68 1383.06 545.32C1379.22 541.84 1373.94 540.1 1367.22 540.1C1360.14 540.1 1354.5 542.14 1350.3 546.22C1346.1 550.18 1344 555.88 1344 563.32V590.5C1344 597.94 1346.1 603.7 1350.3 607.78C1354.5 611.86 1360.14 613.9 1367.22 613.9C1373.94 613.9 1379.22 612.16 1383.06 608.68C1387.02 605.2 1389.18 600.34 1389.54 594.1H1405.74C1405.38 604.66 1401.72 613 1394.76 619.12C1387.8 625.24 1378.62 628.3 1367.22 628.3ZM1436.99 626.5V495.1H1453.19V527.5V546.4H1456.61L1453.19 550.18C1453.19 542.38 1455.53 536.38 1460.21 532.18C1464.89 527.86 1471.37 525.7 1479.65 525.7C1489.61 525.7 1497.53 528.76 1503.41 534.88C1509.29 541 1512.23 549.34 1512.23 559.9V626.5H1496.03V561.7C1496.03 554.62 1494.11 549.16 1490.27 545.32C1486.55 541.36 1481.45 539.38 1474.97 539.38C1468.25 539.38 1462.91 541.48 1458.95 545.68C1455.11 549.88 1453.19 555.82 1453.19 563.5V626.5H1436.99Z" fill="white" fill-opacity="0.7"/>
<defs>
<filter id="filter0_d_802_128" x="1020.9" y="232.8" width="583.349" height="315" filterUnits="userSpaceOnUse" color-interpolation-filters="sRGB">
<feFlood flood-opacity="0" result="BackgroundImageFix"/>
<feColorMatrix in="SourceAlpha" type="matrix" values="0 0 0 0 0 0 0 0 0 0 0 0 0 0 0 0 0 0 127 0" result="hardAlpha"/>
<feOffset dy="90"/>
<feGaussianBlur stdDeviation="45"/>
<feComposite in2="hardAlpha" operator="out"/>
<feColorMatrix type="matrix" values="0 0 0 0 0 0 0 0 0 0 0 0 0 0 0 0 0 0 0.25 0"/>
<feBlend mode="normal" in2="BackgroundImageFix" result="effect1_dropShadow_802_128"/>
<feBlend mode="normal" in="SourceGraphic" in2="effect1_dropShadow_802_128" result="shape"/>
</filter>
</defs>
</svg>
